<svg width="58" height="64" viewBox="0 0 58 64" fill="none" xmlns="http://www.w3.org/2000/svg">
<g id="business-management-icon 1" clip-path="url(#clip0_1_189)">
<g id="Group">
<path id="Vector" fill-rule="evenodd" clip-rule="evenodd" d="M40.9568 41.2638C40.8587 41.5065 40.7037 41.7337 40.5024 41.9351L38.442 43.9955L38.4317 44.0058C38.2303 44.2072 38.0031 44.3621 37.7604 44.4602C37.5074 44.5687 37.244 44.6255 36.96 44.6255C36.676 44.6255 36.4075 44.5687 36.1596 44.4602C35.9169 44.3518 35.6949 44.1969 35.5038 43.9955L34.1612 42.6684C34.0786 42.7045 33.996 42.751 33.9185 42.7872C33.6913 42.8956 33.4538 42.9885 33.2266 43.0763C33.2162 43.0867 33.2059 43.0867 33.1904 43.0867C32.9632 43.1796 32.7205 43.2571 32.4572 43.3397C32.3745 43.3655 32.2919 43.3965 32.2041 43.412V45.0489C32.2041 45.3329 32.1473 45.6014 32.0492 45.8493C31.9511 46.092 31.7962 46.314 31.5948 46.5102L31.5742 46.5309C31.3728 46.722 31.1456 46.8769 30.9029 46.975C30.655 47.0731 30.3917 47.1299 30.1231 47.1299H27.1798C26.8958 47.1299 26.6324 47.0731 26.3794 46.975C26.1367 46.8769 25.9095 46.722 25.7081 46.5206C25.5067 46.3192 25.3518 46.092 25.2537 45.8493C25.1556 45.6014 25.0988 45.3381 25.0988 45.0489V43.1796C25.0058 43.1435 24.918 43.1176 24.8251 43.0815C24.5824 42.9885 24.3449 42.8801 24.097 42.7717C23.8543 42.6529 23.6168 42.5445 23.3896 42.4257C23.3173 42.3895 23.245 42.3431 23.1727 42.3069L22.0212 43.4791L21.9953 43.5049C21.7939 43.696 21.5667 43.8406 21.324 43.9387C21.0813 44.0368 20.818 44.0833 20.5443 44.0833C20.2706 44.0833 20.0073 44.0368 19.7646 43.9387C19.5219 43.8406 19.2947 43.7011 19.0933 43.5101C19.083 43.4998 19.0726 43.4998 19.0726 43.4894L17.0174 41.4084C16.8161 41.2174 16.656 40.9902 16.5527 40.7475C16.4443 40.5048 16.3875 40.2311 16.3875 39.9367C16.3875 39.6527 16.4443 39.3842 16.5527 39.126C16.6611 38.873 16.8161 38.6561 17.0174 38.4651L18.3342 37.1483C18.2877 37.0554 18.2516 36.9779 18.2154 36.8953C18.1173 36.6681 18.0141 36.4305 17.9159 36.1775C17.823 35.94 17.7352 35.6869 17.6629 35.4339C17.6371 35.3513 17.6061 35.2635 17.5906 35.1809H15.9537C15.6697 35.1809 15.4012 35.1241 15.1533 35.026C14.9106 34.9279 14.6886 34.773 14.4923 34.5716L14.4717 34.5509C14.2806 34.3495 14.1257 34.1223 14.0276 33.8899C13.9295 33.6421 13.8727 33.3787 13.8727 33.1102V30.1669C13.8727 29.5833 14.0741 29.0928 14.482 28.6952C14.6834 28.4938 14.9106 28.3389 15.1533 28.2408C15.4012 28.1427 15.6645 28.0858 15.9537 28.0858H17.823C17.8591 27.9929 17.885 27.9051 17.9211 27.8122C18.0141 27.5695 18.1225 27.3319 18.2309 27.0841C18.3497 26.8362 18.4581 26.6038 18.5769 26.3766C18.6131 26.3043 18.6595 26.232 18.6957 26.1598L17.5235 25.0082L17.4977 24.9824C17.3066 24.781 17.162 24.5538 17.0639 24.3111C16.9658 24.0684 16.9193 23.8051 16.9193 23.5314C16.9193 23.2577 16.9658 22.9944 17.0639 22.7517C17.162 22.509 17.3015 22.2817 17.4925 22.0804C17.5028 22.07 17.5028 22.0597 17.5132 22.0597L19.5942 19.9994C19.7956 19.798 20.0228 19.6431 20.2655 19.5449C20.5185 19.4365 20.7818 19.3797 21.0659 19.3797C21.3499 19.3797 21.6184 19.4365 21.8662 19.5449C22.1089 19.6534 22.331 19.8083 22.522 20.0097L23.8388 21.3264C23.9318 21.28 24.0092 21.2438 24.0918 21.2077C24.319 21.1096 24.5566 21.0063 24.8096 20.9082C25.0471 20.8152 25.3002 20.7274 25.5532 20.6552C25.6461 20.6293 25.7236 20.5984 25.8062 20.5829V18.9459C25.8062 18.6619 25.863 18.3934 25.9611 18.1456C26.0592 17.9029 26.2141 17.6808 26.4155 17.4846L26.4362 17.4639C26.6376 17.2729 26.8648 17.118 27.0972 17.0198C27.345 16.9217 27.6084 16.8649 27.8769 16.8649H30.8202C31.1043 16.8649 31.3676 16.9217 31.6206 17.0198C31.8633 17.118 32.0905 17.2729 32.2919 17.4743C32.4933 17.6756 32.6482 17.9029 32.7463 18.1456C32.8445 18.3934 32.9013 18.6568 32.9013 18.9459V20.8152C32.9942 20.8514 33.082 20.8772 33.1749 20.9133C33.4176 21.0063 33.6552 21.1147 33.903 21.2232C34.1457 21.3419 34.3833 21.4504 34.6105 21.5691C34.6828 21.6053 34.7551 21.6518 34.8274 21.6879L35.9789 20.5364C36.1803 20.335 36.4075 20.1801 36.6502 20.0716C36.9032 19.9632 37.1665 19.9064 37.4506 19.9064C37.7346 19.9064 37.9979 19.9632 38.2509 20.0716C38.504 20.1801 38.7208 20.3247 38.9222 20.5364L40.9826 22.5967L40.9929 22.6071C41.1943 22.8085 41.3492 23.0357 41.4473 23.2784C41.5558 23.5314 41.6126 23.7947 41.6126 24.0787C41.6126 24.3628 41.5558 24.6313 41.4473 24.8791C41.3389 25.127 41.184 25.3439 40.9826 25.5349L39.6658 26.8775C39.702 26.9601 39.7484 27.0428 39.7846 27.1202C39.8775 27.3268 39.9756 27.554 40.0738 27.8018C40.0841 27.8122 40.0841 27.8225 40.0841 27.838C40.177 28.0755 40.2648 28.3285 40.3371 28.5816C40.3629 28.6642 40.3939 28.752 40.4094 28.8346H42.0463C42.3303 28.8346 42.5989 28.8914 42.8467 28.9895C43.0894 29.0876 43.3115 29.2425 43.5077 29.4439L43.5283 29.4646C43.7194 29.666 43.8743 29.8932 43.9724 30.1255C44.0705 30.3734 44.1273 30.6368 44.1273 30.9053V33.8486C44.1273 34.1326 44.0705 34.396 43.9724 34.649C43.8743 34.8917 43.7194 35.1189 43.518 35.3306C43.3166 35.532 43.0894 35.6869 42.8467 35.7851C42.5989 35.8832 42.3355 35.94 42.0463 35.94H40.177C40.1409 36.0329 40.1151 36.1207 40.0789 36.2136C39.986 36.4563 39.8879 36.6939 39.7691 36.9417C39.6503 37.1844 39.5419 37.422 39.4231 37.6492C39.387 37.7215 39.3405 37.7938 39.3044 37.8661L40.4559 39.0176C40.6573 39.219 40.8122 39.4462 40.9206 39.6889C41.0291 39.9419 41.0859 40.2053 41.0859 40.4893C41.0859 40.7733 41.0291 41.0366 40.9206 41.2897L40.9568 41.2638ZM23.72 59.9C17.162 58.6658 11.3992 55.1699 7.27337 50.2592C3.11652 45.3174 0.617249 38.9505 0.617249 32.0103C0.617249 25.4885 2.82219 19.4726 6.53495 14.6755C10.32 9.77505 15.6749 6.14491 21.8507 4.54414L22.7699 8.08649C17.3944 9.48072 12.7315 12.641 9.43184 16.9114C6.20963 21.0838 4.29387 26.3198 4.29387 32.0103C4.29387 38.0675 6.46782 43.6134 10.0721 47.9045C13.5216 52.0097 18.2877 54.9789 23.7252 56.1562V52.3711L30.6395 58.0462L23.7252 63.7212L23.72 59.9ZM34.28 4.12587C40.776 5.34969 46.4923 8.78877 50.6131 13.6324C54.8319 18.5896 57.3776 25.0082 57.3776 32.0103C57.3776 38.1707 55.4154 43.8716 52.0796 48.5241C48.656 53.3006 43.7865 56.9669 38.1064 58.893L37.5177 57.158L36.929 55.4229C37.0736 55.3765 37.2182 55.3248 37.3576 55.2732C42.1135 53.564 46.1928 50.4296 49.0897 46.3915C51.9918 42.3431 53.701 37.3807 53.701 32.0155C53.701 25.9016 51.4909 20.3092 47.8246 16.0026C44.3804 11.9542 39.6555 9.03663 34.2748 7.86445V11.6289L27.3657 5.94869L34.28 0.273682V4.12587ZM34.1354 32C34.1354 32.3563 34.0993 32.6971 34.0373 33.0276H34.027C33.965 33.3632 33.8617 33.6834 33.7378 33.9881C33.6035 34.3082 33.4486 34.6077 33.2679 34.8711C33.0975 35.1447 32.8858 35.3978 32.6586 35.625C32.421 35.8625 32.1783 36.0587 31.9046 36.2446C31.6413 36.415 31.3418 36.5803 31.0216 36.7145C31.0113 36.7249 30.9958 36.7249 30.9855 36.7352C30.6963 36.854 30.3865 36.9417 30.0663 37.0089C29.7307 37.0708 29.395 37.107 29.0387 37.107C28.6824 37.107 28.3416 37.0708 28.0111 37.0089C27.6755 36.9469 27.3553 36.8436 27.0507 36.7197C26.7305 36.5854 26.431 36.4305 26.1677 36.2498C25.894 36.0691 25.641 35.8573 25.4138 35.6301C25.1866 35.3926 24.9852 35.1499 24.8044 34.8762C24.634 34.6129 24.4688 34.3134 24.3345 33.9932C24.3242 33.9829 24.3242 33.9674 24.3139 33.9571C24.1951 33.6679 24.1073 33.3581 24.0402 33.0379C23.9782 32.7023 23.9421 32.3666 23.9421 32.0103C23.9421 31.654 23.9782 31.3132 24.0402 30.9827C24.1022 30.6471 24.2054 30.3269 24.3294 30.0223C24.4636 29.7021 24.6185 29.4026 24.7993 29.1393C24.9697 28.8656 25.1814 28.6126 25.4086 28.3853C25.6461 28.1478 25.8888 27.9516 26.1625 27.7657C26.4259 27.5953 26.7254 27.43 27.0455 27.2906C27.0558 27.2803 27.0713 27.2803 27.0817 27.27C27.3812 27.1512 27.691 27.0634 28.006 26.9963C28.3416 26.9343 28.6773 26.8982 29.0336 26.8982C29.3899 26.8982 29.7307 26.9343 30.0612 26.9963C30.3968 27.0583 30.717 27.1615 31.0216 27.2855C31.3418 27.4197 31.6413 27.5746 31.9046 27.7605C32.1783 27.9413 32.4314 28.153 32.6586 28.3802C32.8858 28.6177 33.0872 28.8604 33.2679 29.1341C33.4383 29.3974 33.6035 29.697 33.7378 30.0171C33.7481 30.0274 33.7481 30.0429 33.7584 30.0533C33.8772 30.3424 33.965 30.6523 34.0321 30.9724C34.0993 31.3081 34.1354 31.6437 34.1354 32Z" fill="#121215" stroke="#121215" stroke-width="0.5" stroke-miterlimit="2.6131"/>
</g>
</g>
<defs>
<clipPath id="clip0_1_189">
<rect width="57.0237" height="64" fill="white" transform="translate(0.488159)"/>
</clipPath>
</defs>
</svg>
