<svg width="85" height="64" viewBox="0 0 85 64" fill="none" xmlns="http://www.w3.org/2000/svg">
<g id="desktop-smartphone-transfer-icon 1" clip-path="url(#clip0_1_195)">
<g id="Group">
<path id="Vector" fill-rule="evenodd" clip-rule="evenodd" d="M62.124 17.9621H79.4077C80.7237 17.9621 81.9243 18.4979 82.779 19.3594C83.6473 20.2277 84.1764 21.4215 84.1764 22.7307V59.2382C84.1764 60.5541 83.6405 61.7547 82.779 62.6094C81.9108 63.4777 80.7169 64.0068 79.4077 64.0068H62.124C60.808 64.0068 59.6074 63.4709 58.7527 62.6094C57.8845 61.7412 57.3554 60.5473 57.3554 59.2382V22.7239C57.3554 21.4079 57.8912 20.2073 58.7527 19.3526C59.621 18.4844 60.808 17.9621 62.124 17.9621ZM77.7119 38.7663L69.6873 40.3671L71.3085 37.9659C68.7105 35.3068 65.8616 34.3843 62.5039 35.4561C66.004 30.9452 70.7659 30.8435 74.5441 33.1701L76.1992 30.7214L77.7119 38.7663ZM39.6918 26.7328L47.7164 25.132L46.0952 27.5332C48.6932 30.1923 51.5421 31.1148 54.8998 30.043C51.3997 34.5539 46.6378 34.6556 42.8596 32.329L41.2044 34.7777L39.6918 26.7328ZM2.89262 0H74.8765C76.0161 0 76.9454 0.929306 76.9454 2.06889V14.5772H72.5499V6.16598C72.5499 5.16206 71.7291 4.3345 70.7184 4.3345H7.04397C6.04005 4.3345 5.2125 5.15527 5.2125 6.16598V41.3575C5.2125 42.3614 6.03327 43.189 7.04397 43.189H52.8513V51.8241H2.89262C1.75304 51.8241 0.82373 50.8947 0.82373 49.7552V2.06889C0.82373 0.929306 1.75304 0 2.89262 0ZM48.2658 54.6798C48.3133 57.929 49.6496 60.8322 53.2786 63.125H24.4905C27.387 61.0221 29.5101 58.4649 29.5033 54.6798H48.2658ZM38.8846 44.8509C40.3498 44.8509 41.5436 46.0379 41.5436 47.5099C41.5436 48.9751 40.3498 50.1689 38.8846 50.1689C37.4194 50.1689 36.2255 48.9819 36.2255 47.5099C36.2255 46.0447 37.4126 44.8509 38.8846 44.8509ZM70.7591 58.146C71.8376 58.146 72.7194 59.0143 72.7194 60.1064C72.7194 61.1849 71.8512 62.0668 70.7591 62.0668C69.6805 62.0668 68.7987 61.1985 68.7987 60.1064C68.7987 59.0279 69.667 58.146 70.7591 58.146ZM59.3632 56.6537H82.1617V24.4672H59.3632V56.6537Z" fill="#121215"/>
</g>
</g>
<defs>
<clipPath id="clip0_1_195">
<rect width="83.3526" height="64" fill="white" transform="translate(0.82373)"/>
</clipPath>
</defs>
</svg>
