<svg width="55" height="64" viewBox="0 0 55 64" fill="none" xmlns="http://www.w3.org/2000/svg">
<g id="maintenance-icon 1" clip-path="url(#clip0_1_213)">
<path id="Vector" fill-rule="evenodd" clip-rule="evenodd" d="M0.460851 50.5208C-0.304774 53.5104 0.387935 56.8802 2.23689 59.776C4.60148 47.4635 19.0963 52.6979 11.6536 64C18.0963 63.4792 21.5754 58.5052 21.44 52.3802C21.3775 49.4948 21.44 47.9271 21.8931 46.6146C22.1047 46.0199 22.3974 45.4573 22.7629 44.9427C22.4545 44.2142 22.2934 43.4318 22.289 42.6406V42.4896C22.3021 41.586 22.5156 40.6966 22.914 39.8854L19.0442 36.1198L17.9713 37.5417C16.9193 38.7929 15.7585 39.9485 14.5025 40.9948C13.758 41.4604 12.9538 41.8231 12.1119 42.0729C6.92439 43.849 2.0546 44.3281 0.460851 50.5208ZM30.7525 39.5833L7.83585 17.2708L4.71085 16.7188C4.33623 16.6483 3.99145 16.4668 3.72127 16.1979L1.05981 13.5938C0.700299 13.2423 0.494625 12.7628 0.487793 12.2601C0.48096 11.7574 0.673525 11.2725 1.02335 10.9115L4.23689 7.66667C4.59227 7.31236 5.07362 7.1134 5.57543 7.1134C6.07725 7.1134 6.5586 7.31236 6.91398 7.66667L9.27335 10.0052C9.5377 10.2642 9.71901 10.596 9.79419 10.9583L10.8359 14.7656L33.4869 36.8698L35.7942 34.5469C35.8281 34.5122 35.8687 34.4847 35.9134 34.4659C35.9581 34.4471 36.0061 34.4374 36.0546 34.4374C36.1031 34.4374 36.1511 34.4471 36.1958 34.4659C36.2406 34.4847 36.2811 34.5122 36.315 34.5469L37.8202 36.0365C37.8841 36.0986 37.923 36.182 37.9296 36.2708C37.9921 36.7344 38.0286 37.1094 38.065 37.4271C38.1431 38.2031 38.1848 38.5938 38.3254 38.7292C38.4661 38.8646 38.8463 38.8854 39.6015 38.9375C39.9244 38.9375 40.315 38.9896 40.8359 39.0417C40.9207 39.0479 41.0004 39.085 41.0598 39.1458L52.6327 50.8125C53.5677 51.5737 54.2509 52.5996 54.5929 53.7557C54.9349 54.9118 54.9198 56.1443 54.5494 57.2917C54.2727 58.1481 53.8123 58.9337 53.2004 59.5938C52.594 60.2537 51.8412 60.7621 51.0025 61.0781C49.0494 61.8021 46.6067 61.4219 44.2994 59.0938L33.2421 47.9167C33.1815 47.8544 33.143 47.7738 33.1327 47.6875C33.039 47.0573 32.9817 46.5469 32.9348 46.125C32.8359 45.2865 32.7838 44.849 32.6171 44.6875C32.4504 44.526 31.9609 44.4948 30.9817 44.4635C30.6431 44.4635 30.2473 44.4635 29.7838 44.4167C29.6938 44.4127 29.6084 44.3756 29.5442 44.3125L28.065 42.849C27.9963 42.7797 27.9578 42.6861 27.9578 42.5885C27.9578 42.491 27.9963 42.3974 28.065 42.3281L30.7577 39.6094L30.7525 39.5833ZM36.7629 47.2083C36.677 47.1231 36.6087 47.0217 36.5621 46.91C36.5156 46.7982 36.4916 46.6784 36.4916 46.5573C36.4916 46.4362 36.5156 46.3164 36.5621 46.2046C36.6087 46.0929 36.677 45.9915 36.7629 45.9063C36.9366 45.7336 37.1716 45.6366 37.4166 45.6366C37.6615 45.6366 37.8965 45.7336 38.0702 45.9063L48.0702 56.0417C48.2443 56.2143 48.3426 56.4491 48.3436 56.6942C48.3446 56.9394 48.2481 57.1749 48.0754 57.349C47.9028 57.523 47.668 57.6213 47.4229 57.6223C47.1777 57.6233 46.9422 57.5268 46.7681 57.3542L36.7629 47.2083ZM39.5129 44.4271C39.3389 44.2551 39.2403 44.021 39.2388 43.7764C39.2374 43.5317 39.3331 43.2964 39.5051 43.1224C39.6771 42.9483 39.9112 42.8498 40.1558 42.8483C40.4005 42.8468 40.6358 42.9426 40.8098 43.1146L50.8359 53.2604C50.922 53.3456 50.9906 53.4469 51.0376 53.5585C51.0847 53.6702 51.1092 53.79 51.11 53.9111C51.1107 54.0323 51.0876 54.1524 51.0419 54.2646C50.9962 54.3768 50.9288 54.4789 50.8437 54.5651C50.7585 54.6513 50.6572 54.7199 50.5456 54.7669C50.4339 54.8139 50.3141 54.8385 50.1929 54.8392C50.0718 54.84 49.9517 54.8168 49.8395 54.7711C49.7273 54.7254 49.6252 54.6581 49.539 54.5729L39.5129 44.4271ZM35.0494 28.8333L38.1431 24.7865C41.8671 19.7292 51.5754 22.7031 53.9556 13.4583C54.7161 10.4896 54.0234 7.125 52.19 4.22396C49.8254 16.5365 35.3359 11.3021 42.7786 0C36.3359 0.520833 32.8567 5.49479 32.9921 11.6198C33.0546 14.3073 33.8098 16.5 31.2629 19.9063L28.2786 23.8698L33.7473 29.1979C34.1661 29.0275 34.603 28.9052 35.0494 28.8333Z" fill="#121215"/>
</g>
<defs>
<clipPath id="clip0_1_213">
<rect width="54.6927" height="64" fill="white" transform="translate(0.153687)"/>
</clipPath>
</defs>
</svg>
