<svg width="66" height="64" viewBox="0 0 66 64" fill="none" xmlns="http://www.w3.org/2000/svg">
<g id="target-icon 1" clip-path="url(#clip0_1_207)">
<g id="Group">
<path id="Vector" d="M32.192 0H32.1968V0.00106797C35.3484 0.00160196 38.3943 0.457627 41.2693 1.3072C41.7291 1.44283 42.1931 1.59235 42.6603 1.75361C45.0248 2.57168 47.2601 3.65728 49.3304 4.97303C49.4761 5.0654 49.5194 5.25871 49.4276 5.40449C49.4179 5.4189 49.4067 5.43332 49.3955 5.44614L47.1058 8.382C47.0043 8.51229 46.8196 8.54006 46.685 8.44875L46.6797 8.44555C46.0976 8.08617 45.4963 7.74602 44.879 7.42616C44.257 7.1047 43.6247 6.80674 42.9834 6.53494L42.9823 6.5344C39.6684 5.12842 36.0218 4.35093 32.1915 4.35093H32.1883V4.34986C28.3724 4.34986 24.7349 5.12468 21.4274 6.52373C20.887 6.75227 20.3567 6.99684 19.8388 7.25582C17.1651 8.59293 14.7365 10.3535 12.6406 12.4494L12.6385 12.4515L12.6241 12.4649C11.9288 13.1612 11.2704 13.8944 10.6526 14.6612C10.031 15.4328 9.44844 16.2396 8.91072 17.0769C6.14627 21.3809 4.54217 26.5029 4.54217 31.9997V32.0029H4.5411C4.5411 35.8188 5.31592 39.4563 6.71496 42.7639C6.94351 43.3048 7.18808 43.8345 7.44706 44.3525C8.78416 47.0256 10.5447 49.4547 12.6412 51.5506L12.6433 51.5527L12.655 51.565C13.3514 52.2608 14.0856 52.9198 14.8529 53.5381C15.6245 54.1602 16.4314 54.7423 17.2692 55.28C21.5732 58.0444 26.6957 59.6485 32.192 59.6485H32.1952V59.6501C36.0122 59.6496 39.6486 58.8753 42.9562 57.4763C43.4971 57.2477 44.0268 57.0032 44.5448 56.7442C47.2184 55.4071 49.6476 53.6465 51.7429 51.5506L51.7456 51.5479L51.7616 51.5325C52.4558 50.8367 53.1137 50.1046 53.731 49.3388C54.3531 48.5672 54.9351 47.7598 55.4728 46.9225C58.2378 42.6186 59.8414 37.4966 59.8414 32.0003V31.9949H59.843C59.8424 29.6886 59.5589 27.4448 59.0244 25.3003C58.9357 24.9431 58.8423 24.5965 58.7451 24.2612C58.2314 22.4953 57.5452 20.8015 56.7085 19.2001C56.6358 19.0618 56.6775 18.8941 56.8003 18.8044L59.7591 16.465C59.8937 16.3582 60.0897 16.3811 60.1959 16.5162C60.2056 16.528 60.2136 16.5408 60.2205 16.5536H60.2216L60.2237 16.5579L60.2269 16.5643C60.5799 17.204 60.9136 17.8592 61.2239 18.5272C61.5346 19.1958 61.8225 19.8755 62.0863 20.5639C63.4463 24.1159 64.1918 27.9724 64.1918 32.0008V32.004H64.1907C64.1902 36.4206 63.2941 40.63 61.6751 44.4571C61.4129 45.0782 61.1299 45.6917 60.8271 46.2956C59.277 49.3954 57.2403 52.2064 54.8192 54.628L54.8171 54.6301L54.8053 54.6408C53.998 55.4477 53.1473 56.2107 52.2577 56.9279C51.3643 57.6482 50.4309 58.321 49.4628 58.9431C44.4807 62.1428 38.5518 64.0005 32.1915 64.0005H32.1883V63.9995C27.7717 63.9989 23.5623 63.1029 19.7352 61.4838C19.1142 61.2217 18.5006 60.9381 17.8961 60.6353C14.7969 59.0857 11.9854 57.0486 9.56379 54.628L9.56165 54.6253L9.5467 54.6098C8.74145 53.8035 7.97945 52.9545 7.2639 52.0664C6.54409 51.1731 5.87073 50.2397 5.24917 49.2716C2.04951 44.2884 0.191772 38.3601 0.191772 32.0003V31.9965H0.19284C0.193374 27.5799 1.08941 23.371 2.70792 19.5434C2.97064 18.9224 3.25366 18.3094 3.55643 17.7044C5.10606 14.6051 7.14322 11.7942 9.56379 9.37255L9.56592 9.37041L9.57981 9.35813C10.3861 8.55234 11.2368 7.78928 12.1248 7.0732C13.0187 6.35338 13.9516 5.68002 14.9202 5.05846C19.9039 1.85721 25.8322 0 32.192 0ZM49.8884 8.70346L58.8434 0.146847L59.4398 5.91765L65.8082 6.71382L56.2188 16.0057L51.5528 16.4062L32.9338 33.7234L31.218 32.2459L48.854 13.8233L49.8884 8.70346ZM32.192 21.8711H32.2001V21.8721C32.8024 21.8727 33.3887 21.9245 33.9531 22.0238C34.0188 22.0355 34.1117 22.0531 34.2292 22.0772H34.2308C34.7007 22.1733 35.161 22.3031 35.608 22.4633C35.7703 22.5209 35.8547 22.6993 35.7965 22.8616C35.7852 22.8936 35.7682 22.9225 35.7484 22.9481L35.7489 22.9486L33.2493 26.1547C33.1794 26.2449 33.0683 26.285 32.962 26.2711V26.2722L32.9476 26.27L32.8366 26.2572L32.827 26.2556L32.7308 26.2455L32.7228 26.2444C32.5562 26.23 32.3795 26.222 32.192 26.222H32.1888V26.2204C31.3927 26.2209 30.6323 26.3833 29.9413 26.6759C29.827 26.7245 29.7159 26.7757 29.6097 26.8286C29.0533 27.1068 28.546 27.4747 28.1065 27.9142L28.1044 27.9163L28.0899 27.9291C27.949 28.0712 27.8155 28.2212 27.6895 28.3777C27.5597 28.5384 27.4379 28.7077 27.3253 28.8828C26.7486 29.781 26.4143 30.8517 26.4143 31.9997V32.0029H26.4127C26.4132 32.8002 26.5756 33.56 26.8682 34.2505C26.9168 34.3653 26.968 34.4764 27.0209 34.5821C27.2991 35.139 27.6676 35.6458 28.1065 36.0847L28.1086 36.0874L28.1215 36.1008C28.2635 36.2417 28.4135 36.3763 28.57 36.5018C28.7307 36.6315 28.9 36.7538 29.0752 36.8665C29.9739 37.4427 31.0445 37.7775 32.192 37.7775H32.1952V37.7785C32.9925 37.7785 33.7529 37.6162 34.4428 37.3236C34.5576 37.275 34.6681 37.2237 34.7744 37.1709C35.3314 36.8921 35.8381 36.5242 36.277 36.0847L36.2797 36.0821L36.2904 36.0719C36.3684 35.9934 36.4442 35.9139 36.5141 35.8354C36.5841 35.7569 36.6572 35.6688 36.732 35.5737C37.094 35.1145 37.3883 34.5997 37.5976 34.046C37.6216 33.9814 37.6649 33.929 37.7188 33.8943L41.7579 30.7C41.893 30.5932 42.0884 30.6162 42.1952 30.7513C42.2326 30.7988 42.2534 30.8538 42.2598 30.9099H42.2614L42.2641 30.9339L42.2652 30.9504L42.278 31.0839V31.0877H42.2791L42.2908 31.2329V31.2356C42.3095 31.4919 42.3202 31.7466 42.3202 31.9997V32.0029H42.3186C42.318 33.4004 42.0345 34.7321 41.5224 35.9432C41.4402 36.1381 41.3499 36.3325 41.2538 36.5253C40.762 37.5073 40.118 38.3974 39.3528 39.1621L39.3507 39.1642L39.3336 39.1787C39.0815 39.4296 38.8167 39.6683 38.5406 39.891C38.2576 40.1185 37.9618 40.3321 37.6563 40.528C36.0789 41.5405 34.2036 42.1284 32.1915 42.1284H32.1883V42.1268C30.7909 42.1263 29.4591 41.8427 28.2485 41.3306C28.0536 41.2484 27.8587 41.1582 27.6665 41.062C26.6845 40.5702 25.7943 39.9262 25.0297 39.1616L25.0275 39.1594L25.0099 39.1402C24.76 38.8887 24.5229 38.6244 24.3008 38.3488C24.0728 38.0658 23.8597 37.7705 23.6632 37.4646C22.6508 35.8877 22.0628 34.0118 22.0628 32.0003V31.9965H22.0639C22.0644 30.5996 22.3485 29.2679 22.8601 28.0573C22.9428 27.8624 23.0326 27.668 23.1287 27.4753C23.6194 26.4949 24.2634 25.6052 25.0291 24.8395L25.0297 24.839L25.0291 24.8384L25.0313 24.8363C25.2849 24.5832 25.5556 24.3402 25.8419 24.1095C26.1249 23.8815 26.4202 23.6685 26.7261 23.472C28.3046 22.459 30.181 21.8711 32.192 21.8711ZM32.7223 26.2444C32.5584 26.2241 32.4387 26.0789 32.4489 25.9144L32.7223 26.2444ZM32.192 10.8453H32.1974V10.8464C34.0898 10.8469 35.923 11.0957 37.6643 11.5608C37.9479 11.6367 38.2298 11.7184 38.5091 11.8059C39.9429 12.2534 41.3131 12.8515 42.6 13.5804C42.7495 13.6653 42.8024 13.8559 42.7175 14.0054C42.7095 14.0182 42.7014 14.0316 42.6918 14.0433L42.6902 14.0449L40.3706 17.0203C40.2734 17.1442 40.1009 17.1752 39.9685 17.0988L39.961 17.0951C39.647 16.9311 39.3197 16.7725 38.9796 16.623C38.6373 16.4719 38.2934 16.3331 37.9484 16.2071C36.1548 15.5524 34.2153 15.1951 32.1915 15.1951H32.1883V15.1941C29.8692 15.1941 27.659 15.6656 25.6486 16.5157C25.3314 16.6503 25.0088 16.7992 24.6831 16.9616L24.6585 16.9728C23.0443 17.7839 21.5769 18.8492 20.3087 20.1169L20.3065 20.119L20.2943 20.1313C19.874 20.5526 19.4751 20.998 19.1008 21.4626C18.7233 21.9314 18.3692 22.4221 18.0424 22.931C16.363 25.5465 15.3885 28.6596 15.3885 31.9997V32.0029H15.3875C15.3875 34.322 15.859 36.5328 16.7091 38.5427C16.8479 38.8716 16.9969 39.1941 17.1539 39.5081C17.9661 41.132 19.0362 42.6079 20.3103 43.882L20.3124 43.8842C20.7407 44.313 21.1898 44.7166 21.6554 45.0915C22.1242 45.469 22.615 45.8231 23.1239 46.1499C25.7393 47.8298 28.853 48.8038 32.1926 48.8038H32.1958V48.8049C34.5149 48.8049 36.7256 48.3339 38.7361 47.4838C39.065 47.3444 39.3875 47.1959 39.7015 47.0384C41.3254 46.2262 42.8013 45.1567 44.0754 43.882L44.0775 43.8799C44.5063 43.4511 44.91 43.0025 45.2849 42.5369C45.6624 42.0675 46.0164 41.5773 46.3432 41.0679C48.0237 38.4519 48.9982 35.3388 48.9982 31.9997H48.9972V31.9917H48.9982C48.9982 30.9553 48.9032 29.9385 48.7227 28.9528C48.6955 28.8054 48.6634 28.6442 48.6266 28.4727C48.452 27.6531 48.2175 26.858 47.9308 26.0933C47.8795 25.9561 47.9308 25.8055 48.0467 25.7264L51.0706 23.3353C51.2057 23.2285 51.4012 23.2514 51.5074 23.3865C51.5235 23.4073 51.5363 23.4282 51.5464 23.4506L51.5491 23.4559L51.5512 23.4602L51.5518 23.4597C51.7093 23.8169 51.8609 24.1886 52.0056 24.5736C52.1482 24.9538 52.2796 25.3356 52.3976 25.7179C53.0143 27.7038 53.347 29.8136 53.347 31.9992V32.0024H53.3454C53.3454 34.9217 52.7532 37.7043 51.6831 40.2338C51.5101 40.6434 51.3221 41.0492 51.1219 41.4497C50.0972 43.4992 48.751 45.3574 47.1506 46.9573L47.148 46.9594L47.1362 46.9706C46.6033 47.5019 46.0426 48.006 45.4563 48.4786C44.8657 48.9549 44.2484 49.3997 43.6087 49.8103C40.314 51.926 36.3951 53.1536 32.1915 53.1536H32.1883C29.269 53.1531 26.4864 52.5609 23.9564 51.4908C23.5468 51.3173 23.141 51.1298 22.7405 50.9296C20.6916 49.9043 18.8327 48.5587 17.2324 46.9583L17.2302 46.9562L17.2153 46.9402C16.685 46.4088 16.1826 45.8492 15.7116 45.264C15.2353 44.6734 14.7905 44.0561 14.3793 43.4164C12.2636 40.1222 11.036 36.2027 11.036 31.9997V31.9965H11.0371C11.0376 29.0772 11.6303 26.2946 12.7004 23.7646C12.8734 23.355 13.0609 22.9492 13.2611 22.5487C14.2853 20.5008 15.6315 18.6431 17.2318 17.0422L17.2324 17.0417L17.2318 17.0411L17.234 17.039L17.2479 17.0262C17.7797 16.4949 18.3404 15.9919 18.9257 15.5203C19.5168 15.044 20.1335 14.5992 20.7733 14.1886C24.069 12.0729 27.989 10.8453 32.192 10.8453Z" fill="#121215"/>
</g>
</g>
<defs>
<clipPath id="clip0_1_207">
<rect width="65.6164" height="64" fill="white" transform="translate(0.191772)"/>
</clipPath>
</defs>
</svg>
