<svg width="125" height="64" viewBox="0 0 125 64" fill="none" xmlns="http://www.w3.org/2000/svg">
<g id="web-design-icon 1" clip-path="url(#clip0_1_183)">
<g id="Group">
<path id="Vector" fill-rule="evenodd" clip-rule="evenodd" d="M3.07141 59.3984H14.495C13.651 59.1874 13.018 58.4038 13.018 57.4895V1.96923C13.0281 0.894192 13.9122 0 14.9973 0H97.5643C98.6394 0 99.5336 0.894192 99.5336 1.96923V18.7077L96.4391 19.6521V10.1275H16.3939V56.9268H96.4391V44.8502L97.4639 44.6794C98.1571 44.5589 98.8102 44.3378 99.403 44.0264L99.5436 43.9962V57.4694C99.5436 58.3837 98.9107 59.1573 98.0667 59.3783H110.013C111.279 59.3783 112.313 60.4132 112.313 61.6791C112.313 62.9551 111.279 63.9799 110.013 63.9799H3.07141C1.80548 64 0.77063 62.9652 0.77063 61.6892C0.77063 60.4333 1.80548 59.3984 3.07141 59.3984ZM80.1326 35.2653C81.1876 36.4006 82.3631 38.7215 82.132 40.7309L96.3989 38.3096C95.8664 34.2706 94.6808 30.5633 92.3901 27.4185C87.7684 30.5532 85.116 32.5024 80.1326 35.2653ZM57.0545 46.8998C63.7257 44.9206 70.8592 52.0038 76.5358 46.508C78.0428 45.0512 79.0676 42.7002 78.937 40.4998C78.8768 39.6157 78.6457 38.7617 78.1735 38.0082C77.9625 37.6766 77.7113 37.3652 77.4199 37.0537C73.7829 33.3463 68.1465 34.8132 64.4391 37.6565C61.0331 40.2788 58.5917 44.1771 57.0545 46.8998ZM94.289 27.0568C96.4391 30.4628 97.7954 33.9994 98.2877 37.6867L121.466 25.1177C123.385 24.2537 124.611 23.3695 124.119 20.8578C123.737 20.0339 123.215 19.4813 122.551 19.2C121.898 18.9187 121.115 18.9187 120.19 19.2L94.289 27.0568ZM23.256 20.7774H89.818C90.2099 20.7774 90.5615 20.9181 90.8328 21.1592C90.0391 21.3601 89.2755 21.7017 88.5722 22.2242L88.4315 22.3347C85.2466 24.4948 87.4469 22.9878 86.613 23.5604L86.1107 23.9121H24.8234V40.1181H53.6485C52.9151 41.2132 52.272 42.2782 51.7195 43.2327H23.256C22.392 43.2327 21.6987 42.5294 21.6987 41.6754V22.3347C21.6987 21.4807 22.392 20.7774 23.256 20.7774ZM81.1273 17.1504C80.2633 17.1504 79.57 16.4571 79.57 15.5931C79.57 14.729 80.2733 14.0358 81.1273 14.0358H87.4067C88.2708 14.0358 88.964 14.729 88.964 15.5931C88.964 16.4571 88.2708 17.1504 87.4067 17.1504H81.1273ZM65.6146 17.1504C64.7505 17.1504 64.0573 16.4571 64.0573 15.5931C64.0573 14.729 64.7606 14.0358 65.6146 14.0358H71.894C72.7581 14.0358 73.4513 14.729 73.4513 15.5931C73.4513 16.4571 72.748 17.1504 71.894 17.1504H65.6146ZM50.0918 17.1504C49.2278 17.1504 48.5345 16.4571 48.5345 15.5931C48.5345 14.729 49.2278 14.0358 50.0918 14.0358H56.3713C57.2353 14.0358 57.9286 14.729 57.9286 15.5931C57.9286 16.4571 57.2353 17.1504 56.3713 17.1504H50.0918ZM25.9888 4.73218C26.8529 4.73218 27.5562 5.43548 27.5562 6.29953C27.5562 7.16358 26.8529 7.86688 25.9888 7.86688C25.1248 7.86688 24.4215 7.16358 24.4215 6.29953C24.4215 5.43548 25.1348 4.73218 25.9888 4.73218ZM31.2937 4.73218C32.1578 4.73218 32.851 5.43548 32.851 6.29953C32.851 7.16358 32.1477 7.86688 31.2937 7.86688C30.4397 7.86688 29.7264 7.16358 29.7264 6.29953C29.7264 5.43548 30.4297 4.73218 31.2937 4.73218ZM20.694 4.73218C21.5581 4.73218 22.2614 5.43548 22.2614 6.29953C22.2614 7.16358 21.5581 7.86688 20.694 7.86688C19.83 7.86688 19.1267 7.16358 19.1267 6.29953C19.1267 5.43548 19.83 4.73218 20.694 4.73218ZM53.2968 60.2625H59.7772C60.3901 60.2625 60.8824 60.7648 60.8824 61.3677C60.8824 61.9805 60.3801 62.4728 59.7772 62.4728H53.2968C52.684 62.4728 52.1917 61.9705 52.1917 61.3677C52.1917 60.7447 52.684 60.2625 53.2968 60.2625Z" fill="#121215"/>
</g>
</g>
<defs>
<clipPath id="clip0_1_183">
<rect width="123.459" height="64" fill="white" transform="translate(0.77063)"/>
</clipPath>
</defs>
</svg>
